<svg width="21" height="20" viewBox="0 0 21 20" fill="none" xmlns="http://www.w3.org/2000/svg">
<path d="M10.5 1.25C11.3702 1.25 12.2048 1.57924 12.8202 2.16529C13.4355 2.75134 13.7812 3.5462 13.7812 4.375V5H7.21875V4.375C7.21875 3.5462 7.56445 2.75134 8.17981 2.16529C8.79516 1.57924 9.62976 1.25 10.5 1.25ZM15.0938 5V4.375C15.0938 3.21468 14.6098 2.10188 13.7483 1.28141C12.8868 0.460936 11.7183 0 10.5 0C9.28166 0 8.11322 0.460936 7.25173 1.28141C6.39023 2.10188 5.90625 3.21468 5.90625 4.375V5H1.3125V17.5C1.3125 18.163 1.58906 18.7989 2.08134 19.2678C2.57363 19.7366 3.24131 20 3.9375 20H17.0625C17.7587 20 18.4264 19.7366 18.9187 19.2678C19.4109 18.7989 19.6875 18.163 19.6875 17.5V5H15.0938ZM2.625 6.25H18.375V17.5C18.375 17.8315 18.2367 18.1495 17.9906 18.3839C17.7444 18.6183 17.4106 18.75 17.0625 18.75H3.9375C3.5894 18.75 3.25556 18.6183 3.00942 18.3839C2.76328 18.1495 2.625 17.8315 2.625 17.5V6.25Z" fill="#7A6DA6"/>
</svg>
