<svg width="25" height="24" viewBox="0 0 25 24" fill="none" xmlns="http://www.w3.org/2000/svg">
<path d="M12.5 1.5C13.536 1.5 14.5296 1.89509 15.2621 2.59835C15.9947 3.30161 16.4062 4.25544 16.4062 5.25V6H8.59375V5.25C8.59375 4.25544 9.0053 3.30161 9.73786 2.59835C10.4704 1.89509 11.464 1.5 12.5 1.5ZM17.9688 6V5.25C17.9688 3.85761 17.3926 2.52226 16.367 1.53769C15.3414 0.553123 13.9504 0 12.5 0C11.0496 0 9.6586 0.553123 8.63301 1.53769C7.60742 2.52226 7.03125 3.85761 7.03125 5.25V6H1.5625V21C1.5625 21.7956 1.89174 22.5587 2.47779 23.1213C3.06384 23.6839 3.8587 24 4.6875 24H20.3125C21.1413 24 21.9362 23.6839 22.5222 23.1213C23.1083 22.5587 23.4375 21.7956 23.4375 21V6H17.9688ZM3.125 7.5H21.875V21C21.875 21.3978 21.7104 21.7794 21.4174 22.0607C21.1243 22.342 20.7269 22.5 20.3125 22.5H4.6875C4.2731 22.5 3.87567 22.342 3.58265 22.0607C3.28962 21.7794 3.125 21.3978 3.125 21V7.5Z" fill="#7A6DA6"/>
</svg>
