<svg width="10" height="10" viewBox="0 0 10 10" fill="none" xmlns="http://www.w3.org/2000/svg">
<path d="M5.83333 10H4.16667C3.94565 10 3.73369 9.9122 3.57741 9.75592C3.42113 9.59964 3.33333 9.38768 3.33333 9.16667V6.00417L0.245833 2.91667C0.0893385 2.7611 0.000930329 2.54982 0 2.32917V0.833333C0 0.61232 0.0877973 0.400358 0.244078 0.244078C0.400358 0.0877973 0.61232 0 0.833333 0H9.16667C9.38768 0 9.59964 0.0877973 9.75592 0.244078C9.9122 0.400358 10 0.61232 10 0.833333V2.32917C9.99907 2.54982 9.91066 2.7611 9.75417 2.91667L6.66667 6.00417V9.16667C6.66667 9.38768 6.57887 9.59964 6.42259 9.75592C6.26631 9.9122 6.05435 10 5.83333 10ZM0.833333 0.833333V2.32917L4.16667 5.6625V9.16667H5.83333V5.6625L9.16667 2.32917V0.833333H0.833333Z" fill="#7A6DA6"/>
</svg>
