<svg width="20" height="20" viewBox="0 0 20 20" fill="none" xmlns="http://www.w3.org/2000/svg">
<path fill-rule="evenodd" clip-rule="evenodd" d="M6.22148 0.888328C7.19898 0.843328 7.51065 0.833328 10.0006 0.833328C12.4906 0.833328 12.8023 0.844162 13.779 0.888328C14.7556 0.932495 15.4223 1.08833 16.0056 1.31416C16.6165 1.54499 17.1706 1.90583 17.629 2.37249C18.0956 2.82999 18.4556 3.38333 18.6856 3.99499C18.9123 4.57833 19.0673 5.24499 19.1123 6.21999C19.1573 7.19916 19.1673 7.51083 19.1673 9.99999C19.1673 12.49 19.1565 12.8017 19.1123 13.7792C19.0681 14.7542 18.9123 15.4208 18.6856 16.0042C18.4556 16.6159 18.095 17.1702 17.629 17.6283C17.1706 18.095 16.6165 18.455 16.0056 18.685C15.4223 18.9117 14.7556 19.0667 13.7806 19.1117C12.8023 19.1567 12.4906 19.1667 10.0006 19.1667C7.51065 19.1667 7.19898 19.1558 6.22148 19.1117C5.24648 19.0675 4.57982 18.9117 3.99648 18.685C3.38475 18.455 2.8305 18.0944 2.37232 17.6283C1.90597 17.1706 1.54508 16.6166 1.31482 16.005C1.08898 15.4217 0.933984 14.755 0.888984 13.78C0.843984 12.8008 0.833984 12.4892 0.833984 9.99999C0.833984 7.50999 0.844818 7.19833 0.888984 6.22166C0.933151 5.24499 1.08898 4.57833 1.31482 3.99499C1.54542 3.3834 1.90658 2.82942 2.37315 2.37166C2.83068 1.90541 3.38438 1.54453 3.99565 1.31416C4.57898 1.08833 5.24565 0.933328 6.22065 0.888328H6.22148ZM13.7048 2.53833C12.7381 2.49416 12.4481 2.48499 10.0006 2.48499C7.55315 2.48499 7.26315 2.49416 6.29648 2.53833C5.40232 2.57916 4.91732 2.72833 4.59398 2.85416C4.16648 3.02083 3.86065 3.21833 3.53982 3.53916C3.23569 3.83504 3.00163 4.19523 2.85482 4.59333C2.72898 4.91666 2.57982 5.40166 2.53898 6.29583C2.49482 7.26249 2.48565 7.55249 2.48565 9.99999C2.48565 12.4475 2.49482 12.7375 2.53898 13.7042C2.57982 14.5983 2.72898 15.0833 2.85482 15.4067C3.00148 15.8042 3.23565 16.165 3.53982 16.4608C3.83565 16.765 4.19648 16.9992 4.59398 17.1458C4.91732 17.2717 5.40232 17.4208 6.29648 17.4617C7.26315 17.5058 7.55232 17.515 10.0006 17.515C12.449 17.515 12.7381 17.5058 13.7048 17.4617C14.599 17.4208 15.084 17.2717 15.4073 17.1458C15.8348 16.9792 16.1406 16.7817 16.4615 16.4608C16.7656 16.165 16.9998 15.8042 17.1465 15.4067C17.2723 15.0833 17.4215 14.5983 17.4623 13.7042C17.5065 12.7375 17.5156 12.4475 17.5156 9.99999C17.5156 7.55249 17.5065 7.26249 17.4623 6.29583C17.4215 5.40166 17.2723 4.91666 17.1465 4.59333C16.9798 4.16583 16.7823 3.85999 16.4615 3.53916C16.1656 3.23505 15.8054 3.001 15.4073 2.85416C15.084 2.72833 14.599 2.57916 13.7048 2.53833ZM8.82982 12.8258C9.4837 13.098 10.2118 13.1348 10.8898 12.9298C11.5677 12.7248 12.1535 12.2908 12.547 11.7019C12.9405 11.113 13.1174 10.4057 13.0474 9.70091C12.9773 8.99611 12.6648 8.33747 12.1631 7.83749C11.8433 7.51789 11.4567 7.27317 11.0309 7.12095C10.6052 6.96873 10.151 6.91279 9.70106 6.95717C9.25112 7.00155 8.81661 7.14514 8.42882 7.3776C8.04103 7.61006 7.7096 7.92561 7.4584 8.30154C7.2072 8.67746 7.04247 9.1044 6.97608 9.55163C6.90969 9.99885 6.94328 10.4552 7.07443 10.8879C7.20559 11.3206 7.43105 11.7188 7.73458 12.0539C8.03812 12.389 8.41217 12.6526 8.82982 12.8258ZM6.66898 6.66833C7.1065 6.23081 7.62592 5.88375 8.19756 5.64696C8.76921 5.41018 9.3819 5.28831 10.0006 5.28831C10.6194 5.28831 11.2321 5.41018 11.8037 5.64696C12.3754 5.88375 12.8948 6.23081 13.3323 6.66833C13.7698 7.10585 14.1169 7.62526 14.3537 8.19691C14.5905 8.76856 14.7123 9.38125 14.7123 9.99999C14.7123 10.6187 14.5905 11.2314 14.3537 11.8031C14.1169 12.3747 13.7698 12.8941 13.3323 13.3317C12.4487 14.2153 11.2503 14.7117 10.0006 14.7117C8.75103 14.7117 7.5526 14.2153 6.66898 13.3317C5.78537 12.448 5.28896 11.2496 5.28896 9.99999C5.28896 8.75038 5.78537 7.55194 6.66898 6.66833ZM15.7573 5.98999C15.8657 5.88772 15.9525 5.76473 16.0126 5.62831C16.0726 5.49188 16.1047 5.3448 16.1068 5.19577C16.109 5.04674 16.0813 4.89878 16.0252 4.76067C15.9692 4.62256 15.886 4.49709 15.7806 4.39169C15.6752 4.2863 15.5498 4.20313 15.4116 4.14709C15.2735 4.09106 15.1256 4.06331 14.9765 4.06548C14.8275 4.06765 14.6804 4.09971 14.544 4.15974C14.4076 4.21978 14.2846 4.30657 14.1823 4.41499C13.9834 4.62585 13.8745 4.90593 13.8787 5.19577C13.883 5.48561 14 5.76239 14.2049 5.96736C14.4099 6.17233 14.6867 6.28935 14.9765 6.29358C15.2664 6.2978 15.5465 6.1889 15.7573 5.98999Z" fill="#7A6DA6"/>
</svg>
