<svg width="44" height="44" viewBox="0 0 44 44" fill="none" xmlns="http://www.w3.org/2000/svg">
<g opacity="0.3">
<path d="M41.25 4.69425L39.3058 2.75L2.75 39.3058L4.69425 41.25L7.44425 38.5H35.75C36.479 38.4989 37.1778 38.2088 37.6933 37.6933C38.2088 37.1778 38.4989 36.479 38.5 35.75V7.44425L41.25 4.69425ZM35.75 35.75H10.1943L20.9096 25.0346L24.1807 28.3057C24.6965 28.8213 25.3958 29.1109 26.125 29.1109C26.8542 29.1109 27.5535 28.8213 28.0693 28.3057L30.25 26.125L35.75 31.6209V35.75ZM35.75 27.731L32.1943 24.1753C31.6785 23.6597 30.9792 23.3701 30.25 23.3701C29.5208 23.3701 28.8215 23.6597 28.3057 24.1753L26.125 26.356L22.8566 23.0876L35.75 10.1943V27.731Z" fill="#7A6DA6"/>
<path d="M8.25 30.25V26.125L15.125 19.2541L17.0129 21.1434L18.9599 19.1964L17.0692 17.3058C16.5535 16.7902 15.8542 16.5006 15.125 16.5006C14.3958 16.5006 13.6965 16.7902 13.1808 17.3058L8.25 22.2365V8.25H30.25V5.5H8.25C7.52088 5.50073 6.82183 5.79069 6.30626 6.30626C5.79069 6.82183 5.50073 7.52088 5.5 8.25V30.25H8.25Z" fill="#7A6DA6"/>
</g>
</svg>
