<svg width="17" height="23" viewBox="0 0 17 23" fill="none" xmlns="http://www.w3.org/2000/svg">
<path d="M11.1024 22.2224C10.9204 22.1731 10.7442 22.1045 10.5767 22.0177C7.37708 20.4093 4.69661 17.9302 2.84383 14.8656C1.04569 11.81 0.171568 8.29879 0.327221 4.75679C0.351593 4.31669 0.488816 3.89026 0.725688 3.51854C0.962561 3.14681 1.29111 2.8423 1.67973 2.6343L4.40531 1.12937C4.54402 1.05437 4.69699 1.00945 4.85424 0.997566C5.01149 0.985678 5.16947 1.00708 5.31789 1.06038C5.47089 1.11898 5.60919 1.21038 5.72307 1.32816C5.83695 1.44594 5.92365 1.58724 5.97707 1.74212L7.6129 6.47095C7.67285 6.65349 7.67262 6.85045 7.61225 7.03285C7.55188 7.21526 7.43455 7.37346 7.27753 7.48419L5.48245 8.74495C5.70282 10.0885 6.17946 11.3772 6.8864 12.5408C7.57835 13.7357 8.493 14.7869 9.58082 15.6373L11.624 14.7508C11.7954 14.6768 11.9853 14.6569 12.1684 14.6935C12.3515 14.7301 12.5191 14.8216 12.649 14.9557L16.0304 18.695C16.1483 18.8164 16.2372 18.9629 16.2904 19.1236C16.3437 19.2842 16.3599 19.4548 16.3378 19.6226C16.3157 19.7904 16.256 19.951 16.1631 20.0924C16.0701 20.2338 15.9464 20.3524 15.8011 20.4392L13.1282 21.9641C12.8243 22.1385 12.4888 22.2512 12.1411 22.2956C11.7935 22.3399 11.4405 22.3151 11.1024 22.2224V22.2224ZM4.94383 2.10971L2.21825 3.61464C1.99991 3.73063 1.81551 3.90145 1.6832 4.11031C1.55089 4.31917 1.47522 4.55887 1.46363 4.80584C1.31127 8.12783 2.12425 11.4229 3.80434 14.2927C5.5481 17.1761 8.07076 19.5083 11.0818 21.0209C11.3096 21.136 11.5624 21.1928 11.8174 21.1862C12.0725 21.1795 12.322 21.1097 12.5435 20.9829L15.2163 19.4581L11.951 15.8486L9.75571 16.8047C9.67175 16.841 9.58021 16.8562 9.48905 16.8489C9.39788 16.8417 9.30987 16.8123 9.23268 16.7633C7.87871 15.8072 6.75274 14.5638 5.93527 13.122C5.06423 11.7258 4.51969 10.1509 4.34228 8.51492C4.34201 8.41868 4.36652 8.324 4.41344 8.23997C4.46036 8.15595 4.52811 8.08541 4.61017 8.03515L6.54156 6.67738L4.94383 2.10971Z" fill="#7A6DA6"/>
</svg>
