<svg width="30" height="30" viewBox="0 0 30 30" fill="none" xmlns="http://www.w3.org/2000/svg">
<g clip-path="url(#clip0_169_4860)">
<path d="M18.0945 27.928C17.8792 27.8697 17.6708 27.7885 17.4727 27.6859C13.6883 25.7835 10.518 22.8513 8.32662 19.2266C6.19987 15.6126 5.166 11.4597 5.3501 7.27041C5.37892 6.74988 5.54122 6.24551 5.82138 5.80586C6.10155 5.3662 6.49014 5.00604 6.94978 4.76002L10.1735 2.98006C10.3375 2.89135 10.5185 2.83823 10.7045 2.82417C10.8904 2.81011 11.0773 2.83542 11.2528 2.89847C11.4338 2.96777 11.5974 3.07587 11.7321 3.21518C11.8668 3.35448 11.9693 3.5216 12.0325 3.70479L13.9673 9.29783C14.0382 9.51374 14.0379 9.7467 13.9665 9.96243C13.8951 10.1782 13.7563 10.3653 13.5706 10.4963L11.4475 11.9874C11.7081 13.5765 12.2719 15.1007 13.108 16.477C13.9264 17.8903 15.0082 19.1335 16.2948 20.1394L18.7114 19.0908C18.9142 19.0034 19.1388 18.9798 19.3553 19.0231C19.5719 19.0664 19.7701 19.1746 19.9237 19.3332L23.9231 23.7559C24.0626 23.8995 24.1677 24.0728 24.2307 24.2628C24.2936 24.4528 24.3128 24.6546 24.2867 24.853C24.2606 25.0515 24.1899 25.2414 24.08 25.4087C23.9701 25.576 23.8237 25.7162 23.6519 25.8189L20.4906 27.6224C20.1311 27.8288 19.7343 27.962 19.3231 28.0145C18.9119 28.0669 18.4943 28.0375 18.0945 27.928ZM10.8104 4.13956L7.58672 5.91952C7.32847 6.05671 7.11038 6.25875 6.95389 6.50578C6.7974 6.75281 6.7079 7.03632 6.69419 7.32842C6.51398 11.2575 7.47554 15.1547 9.46267 18.5491C11.5251 21.9594 14.5088 24.7179 18.0702 26.5069C18.3396 26.643 18.6385 26.7102 18.9402 26.7023C19.2419 26.6945 19.537 26.6119 19.7989 26.462L22.9603 24.6584L19.0982 20.3893L16.5017 21.5201C16.4024 21.563 16.2941 21.581 16.1863 21.5724C16.0785 21.5639 15.9744 21.5291 15.8831 21.4711C14.2817 20.3404 12.9499 18.8697 11.983 17.1644C10.9528 15.513 10.3088 13.6504 10.0989 11.7154C10.0986 11.6015 10.1276 11.4895 10.1831 11.3902C10.2386 11.2908 10.3187 11.2074 10.4158 11.1479L12.7001 9.54199L10.8104 4.13956Z" fill="#7A6DA6"/>
</g>
<defs>
<clipPath id="clip0_169_4860">
<rect width="23.8784" height="23.8784" fill="white" transform="translate(6.41211 0.461548) rotate(15)"/>
</clipPath>
</defs>
</svg>
