<svg width="17" height="17" viewBox="0 0 17 17" fill="none" xmlns="http://www.w3.org/2000/svg">
<mask id="path-1-inside-1_169_4823" fill="white">
<path fill-rule="evenodd" clip-rule="evenodd" d="M12.8827 7.00337C12.8827 10.0724 10.3381 12.6067 7.14136 12.6067C3.94462 12.6067 1.4 10.0724 1.4 7.00337C1.4 3.93434 3.94462 1.4 7.14136 1.4C10.3381 1.4 12.8827 3.93434 12.8827 7.00337ZM11.7147 12.3825C10.4758 13.3966 8.88126 14.0067 7.14136 14.0067C3.19729 14.0067 0 10.8712 0 7.00337C0 3.13552 3.19729 0 7.14136 0C11.0854 0 14.2827 3.13552 14.2827 7.00337C14.2827 8.71615 13.6558 10.2853 12.6146 11.5022L16.8298 15.9528C17.0688 16.2052 17.0543 16.5996 16.7972 16.8337C16.5402 17.0678 16.1381 17.053 15.899 16.8005L11.7147 12.3825Z"/>
</mask>
<path fill-rule="evenodd" clip-rule="evenodd" d="M12.8827 7.00337C12.8827 10.0724 10.3381 12.6067 7.14136 12.6067C3.94462 12.6067 1.4 10.0724 1.4 7.00337C1.4 3.93434 3.94462 1.4 7.14136 1.4C10.3381 1.4 12.8827 3.93434 12.8827 7.00337ZM11.7147 12.3825C10.4758 13.3966 8.88126 14.0067 7.14136 14.0067C3.19729 14.0067 0 10.8712 0 7.00337C0 3.13552 3.19729 0 7.14136 0C11.0854 0 14.2827 3.13552 14.2827 7.00337C14.2827 8.71615 13.6558 10.2853 12.6146 11.5022L16.8298 15.9528C17.0688 16.2052 17.0543 16.5996 16.7972 16.8337C16.5402 17.0678 16.1381 17.053 15.899 16.8005L11.7147 12.3825Z" fill="#7A6DA6"/>
<path d="M11.7147 12.3825L11.751 12.3481L11.719 12.3143L11.683 12.3438L11.7147 12.3825ZM12.6146 11.5022L12.5766 11.4697L12.5474 11.5039L12.5783 11.5366L12.6146 11.5022ZM16.8298 15.9528L16.7934 15.9872L16.8298 15.9528ZM16.7972 16.8337L16.8309 16.8707L16.7972 16.8337ZM15.899 16.8005L15.8627 16.8349L15.899 16.8005ZM7.14136 12.6567C10.3649 12.6567 12.9327 10.1009 12.9327 7.00337H12.8327C12.8327 10.0439 10.3113 12.5567 7.14136 12.5567V12.6567ZM1.35 7.00337C1.35 10.1009 3.91786 12.6567 7.14136 12.6567V12.5567C3.97138 12.5567 1.45 10.0439 1.45 7.00337H1.35ZM7.14136 1.35C3.91786 1.35 1.35 3.90588 1.35 7.00337H1.45C1.45 3.9628 3.97138 1.45 7.14136 1.45V1.35ZM12.9327 7.00337C12.9327 3.90588 10.3649 1.35 7.14136 1.35V1.45C10.3113 1.45 12.8327 3.9628 12.8327 7.00337H12.9327ZM7.14136 14.0567C8.89312 14.0567 10.4988 13.4424 11.7464 12.4212L11.683 12.3438C10.4528 13.3508 8.86939 13.9567 7.14136 13.9567V14.0567ZM-0.05 7.00337C-0.05 10.8998 3.1706 14.0567 7.14136 14.0567V13.9567C3.22398 13.9567 0.05 10.8427 0.05 7.00337H-0.05ZM7.14136 -0.05C3.1706 -0.05 -0.05 3.10699 -0.05 7.00337H0.05C0.05 3.16405 3.22398 0.05 7.14136 0.05V-0.05ZM14.3327 7.00337C14.3327 3.10699 11.1121 -0.05 7.14136 -0.05V0.05C11.0587 0.05 14.2327 3.16405 14.2327 7.00337H14.3327ZM12.6526 11.5347C13.7011 10.3092 14.3327 8.72861 14.3327 7.00337H14.2327C14.2327 8.70368 13.6104 10.2614 12.5766 11.4697L12.6526 11.5347ZM12.5783 11.5366L16.7934 15.9872L16.8661 15.9184L12.6509 11.4678L12.5783 11.5366ZM16.7934 15.9872C17.0133 16.2193 16.9999 16.5815 16.7636 16.7967L16.8309 16.8707C17.1086 16.6177 17.1244 16.1911 16.8661 15.9184L16.7934 15.9872ZM16.7636 16.7967C16.5267 17.0125 16.1557 16.9988 15.9353 16.7662L15.8627 16.8349C16.1205 17.1071 16.5538 17.1231 16.8309 16.8707L16.7636 16.7967ZM15.9353 16.7662L11.751 12.3481L11.6784 12.4169L15.8627 16.8349L15.9353 16.7662Z" fill="white" mask="url(#path-1-inside-1_169_4823)"/>
</svg>
