<svg width="20" height="20" viewBox="0 0 20 20" fill="none" xmlns="http://www.w3.org/2000/svg">
<path d="M9.49924 0.00298652C7.89424 0.0223615 4.44362 0.286112 2.51362 2.05674C1.07799 3.47924 0.576744 5.58236 0.517994 8.18299C0.469244 10.7742 0.410494 15.6405 5.10112 16.9655V18.9836C5.10112 18.9836 5.07174 19.7911 5.60549 19.9567C6.26299 20.1649 6.63737 19.5436 7.26237 18.8761L8.42799 17.558C11.6374 17.8249 14.0955 17.2099 14.3786 17.1186C15.0299 16.9105 18.698 16.4417 19.2974 11.5749C19.9124 6.54861 18.998 3.38174 17.3474 1.94924H17.3374C16.8392 1.49049 14.8374 0.0317365 10.3649 0.0154865C10.3649 0.0154865 10.033 -0.00701348 9.49924 0.00236152V0.00298652ZM9.55424 1.41611C10.0099 1.41299 10.2867 1.43236 10.2867 1.43236C14.0724 1.44236 15.8792 2.58174 16.3055 2.96549C17.6955 4.15674 18.4117 7.01174 17.8874 11.208C17.3892 15.2767 14.4142 15.5342 13.8636 15.7099C13.6292 15.7849 11.4642 16.3186 8.73674 16.143C8.73674 16.143 6.70549 18.5942 6.07049 19.2255C5.96987 19.3361 5.85237 19.3686 5.77737 19.3524C5.66987 19.3261 5.63737 19.193 5.64362 19.0105L5.66299 15.6611C1.68487 14.5611 1.91924 10.4105 1.96174 8.24236C2.01049 6.07424 2.41737 4.30049 3.62862 3.09924C5.25924 1.62486 8.18924 1.42611 9.55299 1.41611H9.55424ZM9.85424 3.58361C9.8215 3.58328 9.78902 3.58943 9.75867 3.60172C9.72831 3.614 9.70069 3.63217 9.6774 3.65518C9.6541 3.67818 9.63558 3.70557 9.62292 3.73577C9.61026 3.76596 9.6037 3.79837 9.60362 3.83111C9.60362 3.97111 9.71737 4.08174 9.85424 4.08174C10.4739 4.06995 11.0898 4.18097 11.6664 4.40838C12.243 4.63579 12.7688 4.9751 13.2136 5.40674C14.1217 6.28861 14.5642 7.47361 14.5811 9.02299C14.5811 9.15986 14.6917 9.27361 14.8317 9.27361V9.26361C14.8977 9.26378 14.9611 9.23786 15.008 9.19149C15.055 9.14513 15.0817 9.08209 15.0824 9.01611C15.1127 8.28683 14.9944 7.55899 14.7348 6.87684C14.4751 6.19469 14.0794 5.57246 13.5717 5.04799C12.5824 4.08111 11.3286 3.58299 9.85424 3.58299V3.58361ZM6.55987 4.15674C6.38296 4.13089 6.20254 4.1664 6.04862 4.25736H6.03549C5.67816 4.46682 5.35625 4.73156 5.08174 5.04174C4.85362 5.30549 4.72987 5.57236 4.69737 5.82924C4.67799 5.98236 4.69112 6.13549 4.73674 6.28174L4.75299 6.29174C5.00987 7.04674 5.34549 7.77299 5.75549 8.45674C6.28363 9.41733 6.93359 10.3057 7.68924 11.0999L7.71174 11.1324L7.74737 11.1586L7.76987 11.1849L7.79612 11.2074C8.59314 11.9652 9.48367 12.6182 10.4461 13.1505C11.5461 13.7492 12.2136 14.0324 12.6142 14.1499V14.1561C12.7317 14.1917 12.8386 14.208 12.9461 14.208C13.2875 14.183 13.6108 14.0444 13.8642 13.8142C14.173 13.5397 14.4348 13.2164 14.6392 12.8574V12.8511C14.8311 12.4899 14.7661 12.148 14.4892 11.9167C13.9348 11.432 13.3351 11.0015 12.6986 10.6311C12.2724 10.3999 11.8392 10.5399 11.6636 10.7742L11.2892 11.2461C11.0974 11.4805 10.7486 11.448 10.7486 11.448L10.7386 11.4542C8.13799 10.7899 7.44424 8.15674 7.44424 8.15674C7.44424 8.15674 7.41174 7.79861 7.65237 7.61611L8.12112 7.23861C8.34549 7.05611 8.50174 6.62361 8.26112 6.19674C7.89324 5.55933 7.46368 4.95958 6.97862 4.40611C6.87258 4.27563 6.7238 4.18685 6.55862 4.15549L6.55987 4.15674ZM10.2867 4.89924C9.95487 4.89924 9.95487 5.40049 10.2899 5.40049C10.7025 5.40718 11.1099 5.49513 11.4885 5.65932C11.8672 5.8235 12.2098 6.0607 12.4967 6.35736C12.7585 6.64612 12.9597 6.98447 13.0883 7.35239C13.2169 7.7203 13.2703 8.11028 13.2455 8.49924C13.2466 8.56506 13.2735 8.62782 13.3203 8.67408C13.3672 8.72034 13.4303 8.74642 13.4961 8.74674L13.5061 8.75986C13.5724 8.75937 13.6359 8.73281 13.6828 8.68591C13.7297 8.63902 13.7563 8.57555 13.7567 8.50924C13.7792 7.51611 13.4705 6.68299 12.8649 6.01549C12.2561 5.34799 11.4067 4.97361 10.3224 4.89924H10.2867ZM10.6974 6.24674C10.3555 6.23674 10.3424 6.74799 10.6811 6.75799C11.5049 6.80049 11.9049 7.21674 11.9574 8.07299C11.9585 8.13798 11.9851 8.19995 12.0313 8.24562C12.0776 8.29129 12.1399 8.31704 12.2049 8.31736H12.2149C12.2483 8.31593 12.2811 8.30785 12.3114 8.2936C12.3416 8.27936 12.3687 8.25923 12.3911 8.23438C12.4135 8.20954 12.4308 8.18048 12.4418 8.14891C12.4529 8.11733 12.4575 8.08388 12.4555 8.05049C12.3967 6.93424 11.788 6.30549 10.7074 6.24736H10.6974V6.24674Z" fill="#7A6DA6"/>
</svg>
